<svg xmlns="http://www.w3.org/2000/svg" xmlns:xlink="http://www.w3.org/1999/xlink" id="Layer_1" x="0px" y="0px" width="841.89px" height="595.28px" viewBox="0 0 841.89 595.28" xml:space="preserve">
<polygon fill-rule="evenodd" clip-rule="evenodd" fill="#F4B61A" points="309.122,370.172 183.036,370.172 56.988,370.172   56.759,370.172 183.036,289.991 "></polygon>
<polygon fill-rule="evenodd" clip-rule="evenodd" fill="#F4B61A" points="179.864,284.551 53.328,364.863 117.259,244.093   179.883,124.242 "></polygon>
<polygon fill-rule="evenodd" clip-rule="evenodd" fill="#F4B61A" points="186.208,284.551 312.763,364.863 248.813,244.093   186.195,124.242 "></polygon>
<path fill-rule="evenodd" clip-rule="evenodd" fill="#F4B61A" d="M575.916,279.579l34.859-64.232l79.834,148.763l0.805,1.51  c1.777,2.689,4.865,4.527,8.398,4.527c5.525,0,9.953-4.477,9.953-9.844c0-1.287-0.191-2.537-0.666-3.666l-0.99-1.953  l-88.346-164.966c-1.674-3.19-5.125-5.36-8.988-5.36c-3.963,0-7.211,2.331-8.816,5.708l-26.043,47.002l-26.033-47.002  c-1.611-3.377-4.857-5.708-8.828-5.708c-3.857,0-7.309,2.169-8.982,5.36l-88.346,164.966l-0.996,1.953  c-0.469,1.129-0.652,2.379-0.652,3.666c0,5.367,4.408,9.844,9.945,9.844c3.527,0,6.615-1.838,8.393-4.527l0.811-1.51l79.828-148.763  L575.916,279.579z"></path>
<path fill-rule="evenodd" clip-rule="evenodd" fill="#F4B61A" d="M575.916,380.486c3.971,0,7.186-2.373,8.898-5.607  c6.426-12.121,25.791-48.359,25.791-48.359s15.381,28.113,20.26,37.545l1.064,1.871c1.713,2.551,4.764,4.148,8.127,4.148  c5.529,0,9.977-4.479,9.977-9.832c0-1.293-0.52-3.127-0.869-4.109l-0.729-1.396c-7.326-13.637-37.938-70.756-37.938-70.756  l-34.582,65.232l-34.861-65.232c0,0-30.479,57.119-37.805,70.756l-0.742,1.396c-0.342,0.982-0.863,2.816-0.863,4.109  c0,5.354,4.447,9.832,9.984,9.832c3.355,0,6.406-1.598,8.125-4.148l1.066-1.871c4.877-9.432,20.234-37.545,20.234-37.545  s19.383,36.238,25.803,48.359C568.57,378.113,571.945,380.486,575.916,380.486"></path>
<path fill-rule="evenodd" clip-rule="evenodd" fill="#F4B61A" d="M575.916,336.123l34.859-65.371l50.193,93.535  c1.572,3.406,5.018,5.834,9.082,5.834c5.57,0,9.979-4.49,9.979-9.844c0-1.383-0.229-2.715-0.754-3.895l-0.705-1.42l-67.795-126.737  l-34.859,65.279l-34.861-65.279l-67.801,126.737l-0.697,1.42c-0.521,1.18-0.756,2.512-0.756,3.895c0,5.354,4.428,9.844,9.984,9.844  c4.059,0,7.504-2.428,9.084-5.834l50.186-93.535L575.916,336.123z"></path>
<path fill-rule="evenodd" clip-rule="evenodd" fill="#F4B61A" d="M717.414,194.297c0.064-5.534,4.473-9.939,9.947-9.939  c5.557,0,9.99,4.456,9.99,10.063l-0.014,165.857c0,5.367-4.439,9.863-9.977,9.863c-5.525,0-9.959-4.496-9.959-9.863L717.414,194.297  z"></path>
<path fill-rule="evenodd" clip-rule="evenodd" fill="#F4B61A" d="M743.637,194.297c0.051-5.534,4.465-9.939,9.939-9.939  c5.557,0,9.984,4.456,9.984,10.063l-0.006,165.857c0,5.367-4.434,9.863-9.979,9.863c-5.518,0-9.959-4.496-9.959-9.863  L743.637,194.297z"></path>
<path fill-rule="evenodd" clip-rule="evenodd" fill="#F4B61A" d="M769.854,194.297c0.049-5.534,4.471-9.939,9.945-9.939  c5.562,0,9.99,4.456,9.99,10.063l-0.02,165.857c0,5.367-4.428,9.863-9.971,9.863c-5.525,0-9.965-4.496-9.965-9.863L769.854,194.297z  "></path>
<path fill-rule="evenodd" clip-rule="evenodd" fill="#F4B61A" d="M412.97,269.106l-8.709-16.504c0,0-21.478-39.875-28.226-53.703  c-0.521-1.047-1.079-2.924-1.079-4.548c0-5.623,4.402-10.092,9.946-10.092c4.136,0,7.649,2.48,9.166,6.061l18.902,35.962  l18.901-35.962c1.523-3.581,5.037-6.061,9.166-6.061c5.545,0,9.959,4.469,9.959,10.092c0,1.624-0.559,3.501-1.084,4.548  c-6.75,13.828-28.233,53.703-28.233,53.703L412.97,269.106z"></path>
<path fill-rule="evenodd" clip-rule="evenodd" fill="#F4B61A" d="M412.97,325.379c0,0-52.26-98.387-67.128-126.48  c-0.552-1.047-1.097-2.934-1.097-4.599c0-5.585,4.427-10.06,9.958-10.06c4.098,0,7.599,2.455,9.134,6l49.133,92.351l49.146-92.351  c1.521-3.546,5.029-6,9.121-6c5.537,0,9.965,4.475,9.965,10.06c0,1.665-0.545,3.552-1.104,4.599  C465.23,226.992,412.97,325.379,412.97,325.379"></path>
<path fill-rule="evenodd" clip-rule="evenodd" fill="#F4B61A" d="M412.97,370.248c-3.755,0-6.984-2.016-8.595-5.035  c-22.22-41.572-88.219-166.324-88.219-166.324l0.038-0.016c-0.691-1.364-1.097-2.857-1.097-4.462c0-5.604,4.453-10.06,9.99-10.06  c4.034,0,7.32,2.468,9.07,5.852c19.562,37.887,78.812,148.725,78.812,148.725s59.251-110.838,78.806-148.725  c1.758-3.384,5.043-5.852,9.09-5.852c5.523,0,9.977,4.456,9.977,10.06c0,1.605-0.418,3.099-1.09,4.462l0.037,0.016  c0,0-66.221,125.025-88.212,166.324C419.966,368.232,416.725,370.248,412.97,370.248"></path>
<path fill="#FFFFFF" d="M61.891,471.115v-6.762c4.041,1.498,8.607,2.246,13.701,2.246c6.19,0,9.273-2.068,9.273-6.197  c0-3-1.897-4.516-5.69-4.516h-6.317c-8.246,0-12.375-3.75-12.375-11.273c0-8.27,5.874-12.406,17.621-12.406  c4.51,0,8.792,0.66,12.832,1.973v6.768c-4.041-1.496-8.322-2.258-12.832-2.258c-6.768,0-10.143,1.979-10.143,5.924  c0,3.008,1.637,4.512,4.897,4.512h6.317c8.779,0,13.162,3.754,13.162,11.277c0,8.455-5.582,12.68-16.746,12.68  C70.498,473.082,65.931,472.422,61.891,471.115"></path>
<polygon fill="#FFFFFF" points="190.368,432.486 190.368,438.918 170.185,438.918 170.185,449.066 189.411,449.066 189.411,455.752   170.096,455.752 170.096,466.32 190.768,466.32 190.768,472.803 162.77,472.803 162.77,432.486 "></polygon>
<path fill="#FFFFFF" d="M293.893,471.115c-3.482,1.307-7.428,1.967-11.842,1.967c-14.475,0-21.706-6.99-21.706-21.002  c0-13.25,7.231-19.873,21.706-19.873c4.415,0,8.36,0.66,11.842,1.973v6.768c-3.482-1.496-7.237-2.258-11.278-2.258  c-9.68,0-14.52,4.467-14.52,13.391c0,9.686,4.84,14.52,14.52,14.52c4.041,0,7.795-0.748,11.278-2.246V471.115z"></path>
<path fill="#FFFFFF" d="M365.029,456.957v-24.471h7.466v24.471c0,6.426,3.292,9.643,9.87,9.643c6.584,0,9.863-3.217,9.863-9.643  v-24.471h7.472v24.471c0,10.752-5.779,16.125-17.335,16.125C370.814,473.082,365.029,467.709,365.029,456.957"></path>
<path fill="#FFFFFF" d="M472.246,472.752v-40.266h18.324c8.227,0,12.344,3.604,12.344,10.809c0,4.859-3.197,8.893-9.609,12.084  l12.768,17.424h-9.412l-12.268-17.559v-3.418c7.143-1.225,10.719-3.99,10.719-8.316c0-2.967-1.68-4.451-5.023-4.451h-10.23v33.693  H472.246z"></path>
<rect x="573.682" y="432.492" fill="#FFFFFF" width="7.473" height="40.311"></rect>
<polygon fill="#FFFFFF" points="680.055,432.486 680.055,438.982 668.498,438.982 668.498,472.803 661.025,472.803 661.025,438.982   649.469,438.982 649.469,432.486 "></polygon>
<polygon fill="#FFFFFF" points="744.848,432.486 752.879,432.486 764.213,451.914 774.869,432.486 782.621,432.486 767.791,458.709   767.791,472.803 760.326,472.803 760.326,458.709 "></polygon>
</svg>